<svg id="dribbble" xmlns="http://www.w3.org/2000/svg" width="40" height="40" viewBox="0 0 40 40">
  <path id="dribbble-2" data-name="dribbble" d="M20,3.333A16.667,16.667,0,1,1,3.333,20,16.686,16.686,0,0,1,20,3.333ZM20,0A20,20,0,1,0,40,20,20,20,0,0,0,20,0Zm0,10A10,10,0,1,0,30,20,10,10,0,0,0,20,10Zm8.237,9.533a17.787,17.787,0,0,0-5.918-.06c-.2-.47-.415-.937-.64-1.4a11.822,11.822,0,0,0,4.623-3.4A8.226,8.226,0,0,1,28.237,19.533Zm-3.2-6.067a10.142,10.142,0,0,1-4.153,3.067A38.874,38.874,0,0,0,17.973,12a8.125,8.125,0,0,1,7.062,1.465Zm-8.762-.828a37.542,37.542,0,0,1,2.95,4.483,26.592,26.592,0,0,1-7.24.923A8.276,8.276,0,0,1,16.273,12.638ZM11.738,20l.013-.212a27.986,27.986,0,0,0,8.292-1.1c.195.4.382.8.558,1.193a12.876,12.876,0,0,0-6.948,5.4A8.217,8.217,0,0,1,11.738,20Zm3.19,6.508a11.224,11.224,0,0,1,6.335-5.022,32.735,32.735,0,0,1,1.7,6.217A8.192,8.192,0,0,1,14.928,26.508Zm9.657.358a34.079,34.079,0,0,0-1.6-5.748,16.669,16.669,0,0,1,5.167.163A8.272,8.272,0,0,1,24.585,26.867Z" fill="#e5e5e5"/>
</svg>
