<svg width="48" height="48" viewBox="0 0 48 48" fill="none" xmlns="http://www.w3.org/2000/svg">
<path d="M26.02 26.376C27.254 29.602 28.164 32.922 28.742 36.322C24.278 38.044 19.472 37.21 15.886 34.412C18.512 30.296 21.864 27.616 26.02 26.376V26.376ZM24.96 23.804C24.674 23.164 24.378 22.528 24.066 21.894C20.36 23.062 15.93 23.652 10.8 23.66L10.78 24C10.78 27.208 11.932 30.154 13.842 32.446C16.738 28.1 20.454 25.214 24.96 23.804V23.804ZM18.036 12.22C14.64 13.946 12.098 17.088 11.172 20.87C15.644 20.838 19.512 20.348 22.754 19.396C21.382 16.938 19.812 14.544 18.036 12.22V12.22ZM32.058 13.546C29.824 11.822 27.036 10.782 24 10.782C22.878 10.782 21.796 10.938 20.758 11.202C22.504 13.55 24.054 15.97 25.41 18.452C28.234 17.256 30.45 15.618 32.058 13.546V13.546ZM48 10V38C48 43.522 43.524 48 38 48H10C4.476 48 0 43.522 0 38V10C0 4.478 4.476 0 10 0H38C43.524 0 48 4.478 48 10V10ZM40 24C40 15.164 32.836 8 24 8C15.164 8 8 15.164 8 24C8 32.836 15.164 40 24 40C32.836 40 40 32.836 40 24V24ZM26.688 20.916C27.048 21.658 27.384 22.406 27.712 23.156C30.59 22.66 33.748 22.69 37.18 23.254C37.012 20.298 35.884 17.6 34.086 15.474C32.242 17.772 29.766 19.584 26.688 20.916V20.916ZM28.778 25.79C29.896 28.782 30.754 31.85 31.336 34.986C34.336 32.976 36.458 29.766 37.044 26.052C34.032 25.53 31.278 25.438 28.778 25.79V25.79Z" fill="white"/>
</svg>
