<svg id="github" xmlns="http://www.w3.org/2000/svg" width="40" height="40" viewBox="0 0 40 40">
  <path id="github-2" data-name="github" d="M20,3.333A16.667,16.667,0,1,1,3.333,20,16.686,16.686,0,0,1,20,3.333ZM20,0A20,20,0,1,0,40,20,20,20,0,0,0,20,0Zm0,10a10,10,0,0,0-3.16,19.488c.5.093.66-.217.66-.482V27.145c-2.782.605-3.362-1.178-3.362-1.178a2.646,2.646,0,0,0-1.11-1.463c-.907-.622.068-.608.068-.608a2.1,2.1,0,0,1,1.533,1.032,2.13,2.13,0,0,0,2.91.832,2.126,2.126,0,0,1,.635-1.337c-2.222-.253-4.555-1.112-4.555-4.942A3.866,3.866,0,0,1,14.65,16.8a3.605,3.605,0,0,1,.1-2.65s.84-.268,2.75,1.025a9.481,9.481,0,0,1,5.008,0c1.91-1.293,2.747-1.025,2.747-1.025a3.6,3.6,0,0,1,.1,2.647,3.857,3.857,0,0,1,1.028,2.683c0,3.842-2.34,4.687-4.567,4.933a2.384,2.384,0,0,1,.687,1.852v2.743c0,.267.16.578.667.48A10,10,0,0,0,20,10Z" fill="#e5e5e5"/>
</svg>
