<svg width="48" height="48" viewBox="0 0 48 48" fill="none" xmlns="http://www.w3.org/2000/svg">
<path d="M38 0H10C4.478 0 0 4.478 0 10V38C0 43.522 4.478 48 10 48H38C43.524 48 48 43.522 48 38V10C48 4.478 43.524 0 38 0ZM29.068 39.18C28.258 39.336 28 38.838 28 38.412V34.022C28 32.528 27.476 31.556 26.9 31.06C30.464 30.664 34.208 29.31 34.208 23.166C34.208 21.418 33.584 19.99 32.562 18.872C32.726 18.468 33.274 16.84 32.404 14.638C32.404 14.638 31.062 14.208 28.008 16.278C26.728 15.918 25.36 15.744 24 15.736C22.64 15.742 21.272 15.918 19.994 16.274C16.938 14.204 15.594 14.634 15.594 14.634C14.726 16.838 15.274 18.464 15.44 18.87C14.416 19.99 13.792 21.416 13.792 23.164C13.792 29.292 17.526 30.666 21.082 31.072C20.624 31.472 20.21 32.176 20.066 33.212C19.152 33.62 16.838 34.326 15.41 31.88C15.41 31.88 14.564 30.344 12.956 30.23C12.956 30.23 11.396 30.21 12.846 31.204C12.846 31.204 13.896 31.696 14.624 33.544C14.624 33.544 15.55 36.4 20 35.432V38.41C20 38.832 19.742 39.328 18.944 39.18C12.584 37.066 8 31.068 8 24C8 15.162 15.164 8 24 8C32.836 8 40 15.162 40 24C40 31.066 35.422 37.062 29.068 39.18V39.18Z" fill="white"/>
</svg>
