<svg xmlns="http://www.w3.org/2000/svg" width="199.6" height="294.519" viewBox="0 0 199.6 294.519">
  <g id="green-avatar" transform="translate(23185.501 2921.5)">
    <g id="body_Gaming" data-name="body/Gaming" transform="translate(-23185.5 -2805.84)">
      <path id="_Skin" data-name="âœ‹ Skin" d="M178.895,106.415c0-1.974-2.733-5.479-2.738-7.268,2.3-.411,4.219-3.523,3.71-5.473-.9-.685-3.247-2.035-4.219-2.665-5.923.18-3.672-8.06-4.342-12.249-.675-4.1-1.176-8.383-2.164-12.5-1.754-3.3-2.578-6.994-4.255-10.275-.749-1.087-1.959-2.084-2.322-3.347-3.668-4.007-8.718-6.408-12.874-9.8,1.613-.516,1.505-2.692,1.4-4.089.375-1.823-.026-4.108-1.688-5.135a2.884,2.884,0,0,0-4.453-1.3c-.943-4.227-4.633-6.792-8.5-8.36l.01-.037c-3.9-1.547-8.57-2.318-12.46-1.449C126.057-.415,108.537-1.254,99.645.668c-4.548.983-11.372,4.045-12.923,8.3-.875,2.4-3.387,10.151-3.744,12.623-6.79-3.875-14.662-8.984-20.551-1.183a8.351,8.351,0,0,1-4.249,2.836c-5.51,1.43-12.823,1.477-15.954,7.094-1.872,3.48-.188,5.772-.691,9.253C16.73,57.008-4,121.171.657,151.022c1.12,10.682,6.585,29.59,20.076,27.233,6.881,7.526,122.376,7.526,134.286,0,9.8,2.564,19.764-1.4,23.875-10.794,5.221-12.874-.312-26.778-1.292-39.985-.6-3.334-1.482-5.981-1.955-9.395-.2-1.422.483-3.789,0-5.1C175.875,112.127,178.895,108.39,178.895,106.415Z" transform="translate(7.566 -10.98)" fill="#d08b5b"/>
      <path id="_Top" data-name="ðŸ‘• Top" d="M84.162,167.576c-7.186,0-14.231-.1-20.939-.295-6.89-.2-13.243-.5-18.884-.885-5.916-.405-10.951-.9-14.963-1.477a41.734,41.734,0,0,1-9.178-2.069l-.439-.2-2.709-1.3a20.5,20.5,0,0,0,3.015-.868c0-.021-.06-.032-.171-.032a10.945,10.945,0,0,0-1.127.1,8.45,8.45,0,0,1-1.054.065,9.9,9.9,0,0,1-2.821-.427,12.072,12.072,0,0,1-2.752-1.222,13.33,13.33,0,0,1-4.5-4.462L6.72,153l-.28-.469-.155-.264c-.371-.635-.638-1.125-.921-1.69a44.72,44.72,0,0,1-2.856-7.337,55.585,55.585,0,0,1-1.67-7.672,77.455,77.455,0,0,1-.756-8.5c-.1-2.682-.109-5.453-.023-8.234.085-2.754.264-5.6.533-8.448A163.584,163.584,0,0,1,14.069,59.495,149.915,149.915,0,0,1,21.991,44.27l.311-.518.338-.559.347-.57.349-.568.318-.513.321-.512.324-.511c1.52-2.389,2.919-4.4,4.277-6.144A47.087,47.087,0,0,1,32.916,29.5c2.683-2.612,5.552-5.3,8.526-7.993l-.064-1.132,0-.021c-.008-.047-.033-.14-.068-.268-.241-.89-.976-3.6.016-5.764l.129-.278c.751-1.589,1.038-1.721,1.514-1.941a3.817,3.817,0,0,0,.648-.362l.04-.029a17.424,17.424,0,0,1,3.669-1.97,28.309,28.309,0,0,1,4.5-1.341,14.952,14.952,0,0,1,2.731-.307l.153-.006.2-.007.862-.026a5.3,5.3,0,0,0,2.147-.48,4.564,4.564,0,0,0,1.633-1.33l.07-.089.07-.093.066-.09a13.973,13.973,0,0,0,.8-1.314l.242-.429.116-.2.119-.2a8.215,8.215,0,0,1,1.1-1.534A7.662,7.662,0,0,1,67.276.034c.347-.023.7-.034,1.044-.034a18.987,18.987,0,0,1,5.056.733A47.681,47.681,0,0,1,79.51,2.952l.407.174,1.4.606-.293.672a49.282,49.282,0,0,1-2.769,5.427l-.191.32-.294.486.015.016c.124.137.255.284.388.437L93.563,27.63c6.462,6.937,9.921,10.639,10.283,11a3.627,3.627,0,0,0,2.479,1.278,2.748,2.748,0,0,0,1.884-.85l.153-.145.252-.243.172-.169c.849-.838,1.7-1.767,3.042-3.314l14.217-20.167-.9-2.006c-1.64-3.687-2.549-5.873-2.7-6.5l-.068-.308-.142-.662.649-.193a10.687,10.687,0,0,1,3.051-.427,16.974,16.974,0,0,1,4.82.782l.17.051.49.152a22.913,22.913,0,0,1,4.274,1.652,7.967,7.967,0,0,1,3.456,3.24,6.58,6.58,0,0,0,2.544,2.984l.084.049.1.058.11.059c.092.049.2.1.327.166l.451.218a5.561,5.561,0,0,1,2.636,1.98,3.6,3.6,0,0,1,.569,1.437,5.549,5.549,0,0,1-.037,1.69l-.017.111-.03.182-.116.669-.028.17a4.156,4.156,0,0,0-.034,1.254l.014.08.311,1.657-.618-.392,1.711,1.394c2.471,2.023,3.861,3.212,5.312,4.546l.412.381.081.076c1.376,1.283,2.577,2.5,3.672,3.725a42.114,42.114,0,0,1,3.026,3.78,47.059,47.059,0,0,1,5.017,9.116l.154.373.012.049c1.011,3.961,1.935,8,2.746,12.014s1.533,8.1,2.144,12.15l.117.788.6,4.041-1.962-3.582A4.355,4.355,0,0,0,166.25,70.5l-.1-.038-.072-.027-.151-.054a5.761,5.761,0,0,0-1.895-.332,5.139,5.139,0,0,0-1.523.23l-.113.036-.332.111-.295-.188a9.18,9.18,0,0,0-1.822-.883l-.169-.059-.706-.242.256-.7a2.283,2.283,0,0,0-.673-2.017,3.985,3.985,0,0,0-2.765-.792c-.293,0-.606.013-.956.038l-.241.019-.191.017-.286.028-.9.1v0c-.012.161-.019.3-.021.434v.2a5.238,5.238,0,0,0,.089.936l.026.123.2.909-.931-.016-.406-.006c-.3,0-.6-.005-.9-.005-1.057,0-2.223.022-3.564.066l-1.659.061-4.231.179-3.712.13L137.1,68.8l-.053-.7a1.579,1.579,0,0,0-.631-1.149,3.769,3.769,0,0,0-1.627-.66l-.09-.017-1.461-.264,1.2-1.089.1-.091.1-.1c.987-.983,1.279-1.863.892-2.692a1.985,1.985,0,0,0-1.9-1.015,3.5,3.5,0,0,0-1.316.269l-.091.038-.093.042a7.158,7.158,0,0,0-.886.511l-.5.326-.182.116a6.6,6.6,0,0,1-1.084.578,4.658,4.658,0,0,1-1.864.351,11.9,11.9,0,0,1-1.464-.109l-.131-.017-.312-.042-.8-.111-.2-.026-.2-.025a10.393,10.393,0,0,0-1.22-.083,3.594,3.594,0,0,0-2.04.514,3.464,3.464,0,0,0-1.255,1.731l-.213.473-.094.2a6.7,6.7,0,0,1-.779,1.343,3.408,3.408,0,0,1-.979.839,7.38,7.38,0,0,1-1.866.741l-.614.177-.218.066c-.13.04-.24.077-.357.119a8.719,8.719,0,0,0-2.587,1.457l-.124.1-.134.112a21.643,21.643,0,0,0-2.576,2.7l-.826.975-.294.342-.243.278-.044.05-.034.038-.231.257c-1.831,2.01-3.608,3.8-5.433,5.485l-.385.352-.4.357-.326.289c-1.02.9-2.106,1.8-4.007,3.326L95.014,86.94l-.7.563c-2.14,1.733-3.406,2.825-4.672,4.028l-.323.309-.023.132c-.011.067-.024.146-.041.255,0,.02-.32,1.992-.491,4.719-.1,1.6-.132,3.15-.094,4.6a33.158,33.158,0,0,0,.468,4.937,18.934,18.934,0,0,0,.989,3.964c.282.608.535.684.827.771a1.511,1.511,0,0,1,.911.653l.27.363a21.255,21.255,0,0,0,1.668,2.013l.632.652.727.589.459.277a5.153,5.153,0,0,0,.993.471.777.777,0,0,0,.253.041,1.158,1.158,0,0,0,.618-.2,1.519,1.519,0,0,0,.5-.538l.028-.054.2-.392.438-.013a1.309,1.309,0,0,0,.31-.047,1.686,1.686,0,0,0,1.1-.971A1.738,1.738,0,0,0,100,112.55l-.028-.051-.263-.467-.135-.235a9.8,9.8,0,0,0-.553-.859l-.068-.091-1.009-1.327,2.539.237.208.02.285.03.915.1c.953.107,1.885.2,2.768.291l.763.073,1.335.122.274.027.593.063,1.421.154.506.052.282.027c.266.025.507.046.759.065l.269.019c.6.041,1.14.061,1.651.061a12.434,12.434,0,0,0,3.442-.422,16.193,16.193,0,0,0,3.57-1.528,28.782,28.782,0,0,0,3.726-2.555,31.505,31.505,0,0,0,3.387-3.058,15.508,15.508,0,0,0,2.276-3.022.11.11,0,0,0,.01-.106l-.011-.023-.434-.8.869-.257a6.347,6.347,0,0,0,1.78-.8,3.423,3.423,0,0,0,1.513-2.444,2.068,2.068,0,0,0-.584-1.709l-.049-.046-.067-.061-.934-1.4,1.351-.2a12.186,12.186,0,0,0,1.219-.245,5.023,5.023,0,0,0,1.8-.845,3.247,3.247,0,0,0,1.044-1.3,2.478,2.478,0,0,0,.19-1.149,2.834,2.834,0,0,0-.389-1.21l-.036-.062-.441-.73.788-.326c.164-.068.339-.134.537-.2l.118-.041.118-.04.443-.146a19.565,19.565,0,0,1,2.768-.7,18.17,18.17,0,0,1,2.17-.24l.271-.012.3-.01,0-.009.177,0,.619-.021-.012.032a19.65,19.65,0,0,1,2.765.268l.219.038c.309.054.612.111.951.181l1.409.3c.264.055.487.1.7.137l.215.037,2.27.384-2.074,1-.053.026-.053.028-.229.126a6.321,6.321,0,0,0-1.675,1.291,3.1,3.1,0,0,0-.765,1.534,2.128,2.128,0,0,0,.29,1.712,3.826,3.826,0,0,0,2.744,1.114l.2.021.207.019.136.011,5.872.4-5.56,1.067a36.084,36.084,0,0,0-4.081,1.043c-.106.034-.223.076-.347.125l-.1.039-.565.234-.542.392a2.469,2.469,0,0,0-.906,1.055,1.112,1.112,0,0,0,.164,1.047l.033.046.294.4-.267.421a3.293,3.293,0,0,0-.507,1.986,3.835,3.835,0,0,0,.758,2.018,5.96,5.96,0,0,0,3.7,2.092l.131.029.371.08.542.085.393.054.3.035.2.021.313.029.853.072a14.933,14.933,0,0,1,2.582.374A10.974,10.974,0,0,1,158,107.9l.137.081.289.175.562.345.543.338.183.113.227.137a6.714,6.714,0,0,0,3.39,1.24,3.627,3.627,0,0,0,.547-.042,3.97,3.97,0,0,0,1.905-.809l.086-.069.842-.693-.025-.141.183-.252c.333-.458,1.691-3.006,1.844-3.295l0,0a14.924,14.924,0,0,1,1.456-2.163,7.367,7.367,0,0,1,1.613-1.474l.1-.065.231-.141.264-.056.133.021a.669.669,0,0,1,.611.523,1.847,1.847,0,0,1,.072.255l.02.1.021.112.032.195.034.228.038.281.041.325c.031.256.067.558.108.923l.443,4.078.121,1.083.112.966.023.2v0l0,.036.1.782.1.818c.277,2.127.542,3.755.81,4.978l.051.226.034.147.088.376a79.614,79.614,0,0,1,2.42,17.941c.037,6.178-1.349,11.5-4.12,15.8a21.793,21.793,0,0,1-2.256,2.936,19.846,19.846,0,0,1-2.654,2.422,17.743,17.743,0,0,1-2.981,1.829,15.941,15.941,0,0,1-3.239,1.156,12,12,0,0,1-2.747.333,8.492,8.492,0,0,1-3.815-.834,4.867,4.867,0,0,1-1.032-.718l-.148-.124a2.85,2.85,0,0,0-1.159-.743,1.122,1.122,0,0,0-.112-.021l-.054-.006-.665-.051-.012-.666c-.013-.745-.2-1.246-.374-1.246a.108.108,0,0,0-.077.038,2.7,2.7,0,0,0-.188,1.448c0,.032.123,3.2.156,3.6l.023.265.009.093-.392,1.37a50.821,50.821,0,0,1-10.14,2.178c-4.348.6-9.742,1.129-16.034,1.557-5.989.408-12.683.722-19.9.935C98.87,167.471,91.56,167.576,84.162,167.576Zm34.285-92.084h0l4.4-2.211.089-.044.024-.012.169-.081.529-.246,1.3-.6,1.319-.62-.29,1.429a2.2,2.2,0,0,0-.045.4v.1l.02.652-.645.1c-.517.077-1.039.158-1.551.242l-.51.085Z" transform="translate(9.372 6.084)" fill="#78e185"/>
      <path id="_Ink" data-name="ðŸ– Ink" d="M156.425,174.224h0a6.309,6.309,0,0,1-2.18-1.249l-.108-.1a20.849,20.849,0,0,1-.558-4.536l-.015-.432c-.007-.2-.013-.4-.019-.6s-.012-.422-.02-.639c-.074-2.25-.04-4.71.1-7.52l.1-1.843c.2-3.906.4-8.445.276-12.9-.118-4.3-.466-9.014-1.093-14.833-.283-2.612-.6-5.208-.908-7.625-.069-.551-.152-1.126-.233-1.682h0a33.9,33.9,0,0,1-.46-4.671,9.213,9.213,0,0,1-2.37-.817,5.439,5.439,0,0,1-1.9-1.587,4.575,4.575,0,0,1-.9-2.4,4.014,4.014,0,0,1,.619-2.428,1.852,1.852,0,0,1-.389-1.422,2.214,2.214,0,0,1,.464-.992,4.17,4.17,0,0,1,.9-.83,5.383,5.383,0,0,1-2.048-2.423,10.8,10.8,0,0,1-.932-3.082,13.022,13.022,0,0,1-.114-2.247,7.557,7.557,0,0,1,.426-2.365,17.472,17.472,0,0,0-2.342.242,18.861,18.861,0,0,0-2.663.678l-.442.146c-.2.067-.46.157-.724.266a3.263,3.263,0,0,1,.326,3A4.065,4.065,0,0,1,137.913,101a5.789,5.789,0,0,1-2.067,1,13.505,13.505,0,0,1-1.51.293c-.752.1-1.523.161-2.269.217h0c-.391.029-.8.059-1.189.1-.662.061-1.336.13-1.988.2h-.011c-1.5.155-3.043.315-4.564.379h-.064a.905.905,0,0,1-.873-.516s-.007-.008-.007-.012a.671.671,0,0,1-.1-.264.1.1,0,0,0,.018.013l.007,0a1.233,1.233,0,0,1,.222-.939,1.117,1.117,0,0,1,.8-.445c1.837-.207,3.72-.3,5.54-.392h0c1.309-.065,2.663-.133,3.989-.242l.2-.017A5.5,5.5,0,0,0,137,99.494a1.681,1.681,0,0,0,.637-.979,1.79,1.79,0,0,0-.132-1.056.5.5,0,0,0-.012.054.125.125,0,0,1-.132.106.165.165,0,0,1-.138-.069,1.1,1.1,0,0,1-.183-.815,3.263,3.263,0,0,0-.774-.652,11.261,11.261,0,0,0-4.067-1.164l-.039-.006-.3-.047a44.46,44.46,0,0,0-4.792-.441c-.586-.028-1.185-.042-1.78-.042a42.791,42.791,0,0,0-7.644.715l-.022,0a.106.106,0,0,1-.106-.091.1.1,0,0,1,.071-.111,34.943,34.943,0,0,1,3.7-1l-.016,0c-.023,0-.047-.008-.072-.015a.216.216,0,0,1-.133-.107.2.2,0,0,1-.019-.161.279.279,0,0,1,.02-.049.89.89,0,0,1-.5-.762.674.674,0,0,1,.395-.634,16.051,16.051,0,0,1,3.211-1.2c1.157-.311,2.377-.548,3.358-.738,2.249-.433,4.494-.722,6.393-.947,1.011-.119,2.069-.205,3.092-.289a34.814,34.814,0,0,0,7.954-1.268l.143-.048a6.742,6.742,0,0,0,2.1-1.132,2.843,2.843,0,0,0,1.11-2.021,1.585,1.585,0,0,0-.39-1.231,3.43,3.43,0,0,0-2.527-.7c-.543,0-1.08.04-1.554.076-.26.019-.505.038-.71.046-4.4.168-8.718.477-12.837.92-.935.1-1.79.193-2.613.286-1.391.155-2.738.313-4,.471-.612.076-1.247.174-1.861.269l-.02,0-.391.06a4.853,4.853,0,0,1-.708.122h-.009a.066.066,0,0,1-.035-.01,21.8,21.8,0,0,1-2.943.247c-.129,0-.257,0-.38-.006a.152.152,0,0,1-.136-.125.111.111,0,0,1,.066-.131A21.373,21.373,0,0,1,121.8,83.6a20.145,20.145,0,0,1,2.279-1.4l0,0c.29-.161.564-.313.827-.466.353-.206.713-.433,1.1-.675h0a14.339,14.339,0,0,1,3.242-1.691,9.275,9.275,0,0,1,2.147-1.249,1.831,1.831,0,0,1-.239-1.12,2.326,2.326,0,0,1,.8-1.556,3.545,3.545,0,0,1,1.613-.76,8.412,8.412,0,0,1,1.281-.158.853.853,0,0,1,.363-.669l.072-.055.051-.041c.541-.44,1.593-1.558,1.388-2.207-.087-.274-.39-.432-.9-.467-.046,0-.093,0-.14,0a4.017,4.017,0,0,0-2.143.906h0c-.159.106-.309.207-.46.3a6.363,6.363,0,0,1-1.77.773,7.068,7.068,0,0,1-1.818.22,12.916,12.916,0,0,1-1.753-.134l-.882-.127-.146-.02a8.792,8.792,0,0,0-1.156-.09,3.271,3.271,0,0,0-1.407.268,2.365,2.365,0,0,0-1.087,1.056c-.191.348-.353.687-.51,1.016a5.052,5.052,0,0,1-2.35,2.794,14.543,14.543,0,0,1-2.027.767,9.722,9.722,0,0,0-2.932,1.324,19.546,19.546,0,0,0-3.167,3.227c-.316.376-.643.766-.971,1.136a60.375,60.375,0,0,1-4.634,4.658c-1.467,1.333-3.11,2.72-5.024,4.241l-.609.483c-1.4,1.1-3.065,2.4-4.831,3.649a51.545,51.545,0,0,1-5.114,3.22.164.164,0,0,1-.071.017.137.137,0,0,1-.112-.091.115.115,0,0,1,.032-.124c2.23-2.167,4.705-4.145,7.1-6.057,2.037-1.628,4.143-3.31,6.091-5.1,1.807-1.664,3.569-3.443,5.388-5.439.451-.5.895-1.022,1.323-1.53h0a24.77,24.77,0,0,1,3.263-3.4,9.44,9.44,0,0,1,2.8-1.576c.321-.115.662-.213.992-.307h0a8.109,8.109,0,0,0,1.932-.735,3.071,3.071,0,0,0,1.009-1,9.284,9.284,0,0,0,.65-1.276,4.788,4.788,0,0,1,1.643-2.3,4.36,4.36,0,0,1,2.447-.63,15.474,15.474,0,0,1,2.138.2l.364.051.2.026a11.994,11.994,0,0,0,1.555.131,4.221,4.221,0,0,0,1.639-.292,8.638,8.638,0,0,0,1.407-.8,8.573,8.573,0,0,1,1.433-.812,4.261,4.261,0,0,1,1.606-.317,3.262,3.262,0,0,1,1.49.334,2.312,2.312,0,0,1,1.06,1.1,2.429,2.429,0,0,1,0,2.1,5.315,5.315,0,0,1-1.357,1.724,4.685,4.685,0,0,1,2,.79,2.274,2.274,0,0,1,.95,1.7c1-.033,2.014-.069,3-.1h0l.323-.011c1.065-.037,2.143-.084,3.186-.13h0c2.325-.1,4.729-.206,7.091-.206.448,0,.891,0,1.315.011a5.8,5.8,0,0,1-.132-1.21c0-.209.006-.435.024-.693a.716.716,0,0,1,.206-.476.791.791,0,0,1,.477-.207l.872-.093.292-.029c.573-.054,1.035-.079,1.453-.079a6.747,6.747,0,0,1,1.742.2,3.694,3.694,0,0,1,1.51.774,3.107,3.107,0,0,1,.814,1.293A2.349,2.349,0,0,1,162.1,77.7a10.06,10.06,0,0,1,2.147,1.017,5.863,5.863,0,0,1,1.868-.3,6.5,6.5,0,0,1,2.136.372l.156.056a8.512,8.512,0,0,1,1.547.743,3.438,3.438,0,0,1,1.226,1.182c-.615-4.168-1.347-8.375-2.175-12.5s-1.777-8.3-2.818-12.375a46.391,46.391,0,0,0-5.071-9.3,41.7,41.7,0,0,0-3.126-3.882c-1.044-1.156-2.185-2.308-3.486-3.521-2.417-2.254-5.038-4.381-7.572-6.439-1.678-1.362-3.412-2.771-5.072-4.2-.477.525-.984,1.029-1.474,1.517l-.013.013-.328.327-.251.253c-1.109,1.123-2.337,2.278-3.755,3.532-2.294,2.028-4.732,3.955-7.089,5.819l-.012.01-1.235.977a98.819,98.819,0,0,0-8.057,7.058,64.75,64.75,0,0,0-7,8.088.146.146,0,0,1-.225,0,.1.1,0,0,1,0-.1,27.6,27.6,0,0,1,2.646-4.808,39.74,39.74,0,0,1,3.444-4.325,103.766,103.766,0,0,1,8-7.649l.123-.11.285-.254c.76-.677,1.538-1.361,2.29-2.022l.007-.006c2.113-1.858,4.3-3.779,6.35-5.769,1.411-1.369,2.636-2.653,3.743-3.928l.3-.343c.094-.111.2-.246.327-.4h0c.629-.791,1.579-1.986,2.456-1.986a1.211,1.211,0,0,1,1.01.709,1.373,1.373,0,0,1,0,1.373,10.883,10.883,0,0,1-1.248,1.709c1.7.923,3.361,1.9,4.946,2.907a4.712,4.712,0,0,1,.016-1.584l.028-.173.117-.676a5.964,5.964,0,0,0,.112-1.458,2.993,2.993,0,0,0-.489-1.439,5.435,5.435,0,0,0-2.4-1.749c-.359-.172-.73-.349-1.069-.55a6.063,6.063,0,0,1-1.647-1.423,11.57,11.57,0,0,1-1.17-1.847,7.265,7.265,0,0,0-3.155-2.938,23.646,23.646,0,0,0-4.146-1.6l-.343-.106a16.625,16.625,0,0,0-4.92-.842,9.954,9.954,0,0,0-2.842.394,24.323,24.323,0,0,0,.932,3.239,11.154,11.154,0,0,0,.495,1.09,5.064,5.064,0,0,1,.76,2.5,1.511,1.511,0,0,1-.424.9,1.247,1.247,0,0,1-.875.417.988.988,0,0,1-.611-.218,5.478,5.478,0,0,1-1.661-3.45l0-.017c-.024-.109-.049-.221-.073-.332a26.057,26.057,0,0,1-.586-4.155,21.8,21.8,0,0,1,.148-4.023l.127-.981.031-.228a6.314,6.314,0,0,1,.9-2.809.132.132,0,0,1,.106-.054.1.1,0,0,1,.1.081,8.676,8.676,0,0,1,.1,2.357c-.021.441-.043.9-.027,1.327a24.9,24.9,0,0,0,.378,3.413,10.024,10.024,0,0,1,4.711-1.061,15.342,15.342,0,0,1,2.245.173c2.724.4,6.51,1.347,9.078,3.536a7.617,7.617,0,0,1,1.506,1.778c.133.213.254.436.371.651a4.54,4.54,0,0,0,1.232,1.62,10.949,10.949,0,0,0,1.807.991,9.392,9.392,0,0,1,2.1,1.216,5.786,5.786,0,0,1,1.437,1.814,6.316,6.316,0,0,1,.658,2.221,8.018,8.018,0,0,1-.208,2.388,3.008,3.008,0,0,0,.119,1.709,1.388,1.388,0,0,1-.6,1.462c1.051.721,2.011,1.413,2.935,2.115a51.386,51.386,0,0,1,7.688,7.156,45.465,45.465,0,0,1,5.947,8.646l.079.155.092.186a78.2,78.2,0,0,1,3.157,7.538c.213.645.383,1.186.534,1.7.436,1.489.816,3.032,1.129,4.586l.083.421c.055.282.117.568.183.871a13.337,13.337,0,0,1,.434,3.342c.739,3.829,1.386,7.652,1.923,11.363a1.269,1.269,0,0,1-.434,1.172c.737.118,1.457.262,2.191.41l.42.088.21.046a6.559,6.559,0,0,1,3.981,2.1,3.692,3.692,0,0,1,.808,2.25,3.629,3.629,0,0,1-.791,2.257,4.96,4.96,0,0,1-1.63,1.347,8.805,8.805,0,0,1-1.987.732c-.286.071-.563.135-.825.188a.184.184,0,0,1-.038,0,.181.181,0,0,1-.173-.138.152.152,0,0,1,.079-.179l.294-.162.4-.22a6.473,6.473,0,0,0,2.7-2.261,2.334,2.334,0,0,0,.26-1.819,2.794,2.794,0,0,0-1.441-1.607,10.355,10.355,0,0,0-3.27-.878l-.5-.079-.516-.085a17.409,17.409,0,0,0-2.791-.258,10.427,10.427,0,0,0-1.167.063,7.416,7.416,0,0,0-1.711.4,5.952,5.952,0,0,0-1.544.83l-.086.068-.089.075c-.478.414-1.341,1.388-1.185,2.108a.925.925,0,0,0,.734.651,11.1,11.1,0,0,0,2.837.3c.355.007.689.014,1.016.032l.16.01c.381.026.775.043,1.157.059h0c.663.028,1.348.057,2.011.136a9.685,9.685,0,0,1,1.111.19.82.82,0,0,1,.5.312.756.756,0,0,1,.132.493,1.033,1.033,0,0,1-.254.6.95.95,0,0,1-.612.322c-.2.022-.426.036-.683.042a5.768,5.768,0,0,1-1.558.724c-.193.068-.393.138-.582.213-.776.307-1.425.56-2.045.8.6.028,1.2.078,1.769.149a.152.152,0,0,1,.144.151.148.148,0,0,1-.144.146c-1.168.119-2.706.283-4.241.5a44.856,44.856,0,0,0-6.473,1.325A41.741,41.741,0,0,0,155.218,96l-.449.193-.185.081-.262.113,0,0h0a16.738,16.738,0,0,0-2.015.978,4.453,4.453,0,0,0-1.583,1.461,2.662,2.662,0,0,0-.372,1.186,1.575,1.575,0,0,0,.36,1.164,3.284,3.284,0,0,0,2.381.637c.121,0,.247,0,.364.01l.068,0c1.044.051,2.106.076,3.155.076.756,0,1.524-.013,2.281-.04a72.554,72.554,0,0,0,11.332-1.279.633.633,0,0,1,.121-.012.582.582,0,0,1,.563.528.475.475,0,0,1-.391.544,63.293,63.293,0,0,1-6.64,1.178,58.645,58.645,0,0,1-6.726.431h-.495a40.843,40.843,0,0,0-5.194,1.4l-.342.114c-.18.061-.382.122-.6.186-1,.3-2.245.673-2.735,1.5-.355.6-.31,1.08.134,1.433a3.264,3.264,0,0,0,1.423.531,10.441,10.441,0,0,0,1.442.143c1.768.066,3.577.1,5.378.1,1.054,0,2.128-.011,3.192-.034,1.457-.032,2.9-.085,4.283-.156.384-.02.783-.051,1.169-.081.7-.054,1.416-.11,2.115-.11.36,0,.685.014.993.044a.615.615,0,0,1,.549.57.492.492,0,0,1-.4.531,20.447,20.447,0,0,1-4.5.429h0c-.3.007-.609.013-.907.023l-.2.007c-1.729.062-3.516.093-5.311.093h-.4c-1.626-.006-3.275-.04-4.9-.1l-1.443-.057-.255-.012a6.159,6.159,0,0,1-2.236-.446,2.284,2.284,0,0,0-.214,1.733,3.47,3.47,0,0,0,.868,1.568,5.957,5.957,0,0,0,2.957,1.43c.089.02.194.042.3.063.738.15,1.491.251,2.219.348a14.917,14.917,0,0,1,4.715,1.167c.62.3,1.234.685,1.827,1.052a10.984,10.984,0,0,0,3.78,1.727,4.55,4.55,0,0,0,.777.07,3.554,3.554,0,0,0,1.932-.552,4.993,4.993,0,0,0,1.471-1.518h0c.05-.077.106-.164.158-.248.354-.57.668-1.176.971-1.762a21.8,21.8,0,0,1,1.181-2.088,8.031,8.031,0,0,1,1.464-1.713c.112-.1.522-.335.956-.588h0a11.378,11.378,0,0,0,1.393-.882c.762-.782.625-2.1.493-3.369a7.356,7.356,0,0,1-.036-2.075,4.691,4.691,0,0,1,1.7-2.527,8.3,8.3,0,0,0,1.236-1.351,2.236,2.236,0,0,0,.392-1.014,2.485,2.485,0,0,0-.1-1,8.571,8.571,0,0,0-1.04-2.01c-.824-1.311-1.675-2.667-.935-4.119a.19.19,0,0,1,.075-.081.217.217,0,0,1,.1-.025.246.246,0,0,1,.178.074.183.183,0,0,1,.049.141,3.672,3.672,0,0,0,.4,1.9,11.989,11.989,0,0,0,1.07,1.694,9.956,9.956,0,0,1,1.205,2,3.366,3.366,0,0,1,.263,1.432,3.019,3.019,0,0,1-.334,1.217,9.141,9.141,0,0,1-1.708,2.122l-.03.031-.1.107c-1.158,1.194-1.044,2.479-.924,3.84a8.638,8.638,0,0,1-.008,2.317,3.1,3.1,0,0,1-.245.78,1.265,1.265,0,0,1,.6.946c.591,5.011,1.26,10.341,2.359,15.577l.231,1.094.31,1.459a64.88,64.88,0,0,1,1.626,11.048,43.862,43.862,0,0,1,.345,9.5,31.249,31.249,0,0,1-1.442,7.2,28.283,28.283,0,0,1-3.156,6.66,22.787,22.787,0,0,1-4.849,5.406,19.424,19.424,0,0,1-6.522,3.441,14.92,14.92,0,0,1-4.316.654,13.317,13.317,0,0,1-2.687-.271,11.136,11.136,0,0,1-2.918-1.071c.069.744.109,1.357.127,1.928a1.389,1.389,0,0,1,.292,1.4Zm-4.252-58.464a34.459,34.459,0,0,1,.9,4.259v.006c.07.42.143.855.218,1.272.424,2.375.773,4.753,1.167,7.591.693,4.978,1.164,9.96,1.4,14.809.245,5.023.1,10.047-.057,14.362l-.087,2.337c-.063,1.729-.127,3.74-.093,5.711a1.8,1.8,0,0,1,.278.044,3.722,3.722,0,0,1,1.47.9,5.371,5.371,0,0,0,1.026.74,7.768,7.768,0,0,0,3.488.755,11.262,11.262,0,0,0,2.58-.311,15.971,15.971,0,0,0,6.1-2.976,19.314,19.314,0,0,0,2.5-2.33,21.051,21.051,0,0,0,2.075-2.719,24.283,24.283,0,0,0,3.121-7.4,32.944,32.944,0,0,0,.881-8.008,65.747,65.747,0,0,0-.7-8.968c-.384-2.681-.94-5.563-1.7-8.811l-.088-.375a113.32,113.32,0,0,1-1.6-11.463v0a26.927,26.927,0,0,0-.572-4.232l-.009,0c-1.762,1.044-2.9,3.2-3.805,4.932a17.164,17.164,0,0,1-1.125,1.951c.029.164.056.331.082.492.061.379.124.77.218,1.136a27.218,27.218,0,0,0,1.176,3.514c.6,1.463,1.316,2.9,2.012,4.287v0c.259.517.526,1.051.784,1.579a46.235,46.235,0,0,1,2.094,4.809.964.964,0,0,0-.171.231,2.124,2.124,0,0,1-.541.711.931.931,0,0,1-.593.19,4.2,4.2,0,0,1-.884-.147l-.273-.062v0a43.134,43.134,0,0,0-1.834-4.456c-.217-.477-.442-.969-.657-1.456l-.21-.478-.208-.478a27.675,27.675,0,0,1-1.764-5.161,17.659,17.659,0,0,1-.359-3.49,4.691,4.691,0,0,1-2.347,1.037,4.224,4.224,0,0,1-.628.047,5.74,5.74,0,0,1-2.378-.582,19.3,19.3,0,0,1-2.186-1.233l-.01-.006-.364-.226-.376-.23a11.935,11.935,0,0,0-3.283-1.522,17.181,17.181,0,0,0-2.758-.379h0c-.461-.038-.939-.077-1.405-.136l-.027,0h0c-.154-.02-.313-.041-.471-.066ZM145.946,95l-.063.318a7.668,7.668,0,0,0-.159,1.122,9.24,9.24,0,0,0,.325,2.916,10.178,10.178,0,0,0,1.125,2.679,9.2,9.2,0,0,0,.768,1.02,7.957,7.957,0,0,1,.862,1.181.768.768,0,0,1,.088.254c.186-.077.35-.138.5-.186a36.787,36.787,0,0,1,4.163-1.064l-.224-.015-.144-.011c-1.847-.156-3.048-.625-3.67-1.432a2.339,2.339,0,0,1-.438-.973,3.57,3.57,0,0,1,.008-1.317,4.944,4.944,0,0,1,2.8-3.337l.164-.091c.077-.043.149-.08.215-.112-.558-.094-1.042-.2-1.555-.309-.576-.124-1.172-.253-1.939-.381A18.874,18.874,0,0,0,145.946,95ZM127.354,82.052c-.3.14-.594.274-.88.4h0c-.391.178-.761.345-1.11.515l-.082.041h0l-.06.029c.684-.116,1.383-.227,2.077-.33a2.877,2.877,0,0,1,.059-.661h0Zm27.366-2.429a1.154,1.154,0,0,0-.621.247l-.039.039a1.086,1.086,0,0,0-.286.69l.035.259a.98.98,0,0,0,.251.431l.2.153a.98.98,0,0,0,.427.131l.066,0h.2a1.182,1.182,0,0,0,.594-.247l.039-.039a1.126,1.126,0,0,0,.286-.633V80.6l-.035-.26a.975.975,0,0,0-.208-.384l-.043-.047-.2-.153a.974.974,0,0,0-.427-.131l-.065,0h-.171ZM149.167,81.2a3.192,3.192,0,0,1,1.107.2.75.75,0,0,0,.261.046,1.036,1.036,0,0,0,.94-.728.917.917,0,0,0-.1-.736,1.138,1.138,0,0,0-.583-.465,4.46,4.46,0,0,0-1.548-.26,6.694,6.694,0,0,0-1.22.12.83.83,0,0,0-.547.393,1.049,1.049,0,0,0-.134.807.921.921,0,0,0,.37.526,1.063,1.063,0,0,0,.6.177,1.257,1.257,0,0,0,.177-.013l.05-.008A3.458,3.458,0,0,1,149.167,81.2ZM21.918,171.089a4.306,4.306,0,0,1-.529-.031l-.092-.013c-.382.027-.768.04-1.147.04a15.176,15.176,0,0,1-2.364-.181,12.572,12.572,0,0,1-2.265-.571,8.942,8.942,0,0,1-3.768-2.471,1.1,1.1,0,0,1-.633.2,1.262,1.262,0,0,1-.78-.286,13.374,13.374,0,0,1-3.023-3.482,35.678,35.678,0,0,1-2.15-4.133,49.836,49.836,0,0,1-3.055-8.782,70.085,70.085,0,0,1-1.6-9.149A89.723,89.723,0,0,1,0,132.952a151.075,151.075,0,0,1,4.188-35.6A165.327,165.327,0,0,1,16.25,63.576C17.6,60.8,19,58.084,20.408,55.515c1.487-2.7,3.035-5.335,4.6-7.816a64.385,64.385,0,0,1,5.275-7.29c.991-1.172,2.018-2.278,3.053-3.288a40.386,40.386,0,0,1,3.4-2.968,46.281,46.281,0,0,1,4.279-2.945c-1.187-.588-1.411-2.186-1.452-2.846-.133-2.133.033-5.143,1.581-7.374a12.39,12.39,0,0,1,4-3.557,20.017,20.017,0,0,1,5-2.027,26.592,26.592,0,0,1,5.371-.811c.122-.006.25-.009.39-.009.283,0,.573.013.854.025h.007c.28.012.57.025.852.025a6.6,6.6,0,0,0,.717-.035,2.528,2.528,0,0,0,1.781-1.21c.322-.44.617-.889.9-1.324A10.764,10.764,0,0,1,63.8,8.847a9.656,9.656,0,0,1,5.49-1.591c.224,0,.451.007.674.02a13.032,13.032,0,0,1,3.561.757,26.25,26.25,0,0,1,3.34,1.484c1.878.966,3.752,2.052,5.729,3.321.341-.8.665-1.61.96-2.409a47.2,47.2,0,0,0,1.49-4.8c.115-.454.191-.938.273-1.451A6.23,6.23,0,0,1,86.648.594,2.117,2.117,0,0,1,88.15,0a2.233,2.233,0,0,1,1.276.392,1.86,1.86,0,0,1,.758,1.135c.019.084.032.166.041.236a3.609,3.609,0,0,1,.1.979,1.537,1.537,0,0,1-.025.348,7.261,7.261,0,0,1-.259,1.2c-.26.9-.563,1.8-.9,2.686a30.268,30.268,0,0,1-2.425,5.007,26.166,26.166,0,0,1-2.982,3.978A29.864,29.864,0,0,1,80.1,19.324c.375.309.75.633,1.112.946h0l.364.314c2.276,1.959,4.6,4.094,6.894,6.346,4.073,3.991,7.983,7.985,11.623,11.873,1.622,1.732,3.377,3.655,5.524,6.05l.06.069.065.077c.085.1.183.227.287.358v0c.637.806,1.6,2.023,2.4,2.023a.73.73,0,0,0,.217-.032,2.987,2.987,0,0,0,1.069-.928l0,0c.095-.11.184-.214.262-.3l.612-.638c.246-.258.433-.458.6-.646,3.616-3.962,7.013-8.063,10.1-12.19,1.541-2.062,3.046-4.186,4.475-6.314.737-1.1,1.469-2.219,2.176-3.332.145-.229.287-.465.423-.693v0a8.371,8.371,0,0,1,1.833-2.362,1.077,1.077,0,0,1,.674-.247.933.933,0,0,1,.725.334.991.991,0,0,1,.188.836,9.4,9.4,0,0,1-1.682,3.361l0,0c-.169.249-.343.506-.506.758-.836,1.3-1.7,2.6-2.575,3.865-1.65,2.4-3.425,4.824-5.277,7.212-1.492,1.924-3.093,3.867-4.9,5.939l-.461.527c-.411.469-.826.95-1.227,1.416a62.347,62.347,0,0,1-4.365,4.727,3.211,3.211,0,0,1-3.923.653,5.812,5.812,0,0,1-1.461-1.1c-1.366-1.371-2.687-2.84-3.965-4.259h0c-.654-.727-1.331-1.479-2-2.207-4.053-4.384-8.1-8.684-12.039-12.779L86.067,27.6c-1.393-1.454-3.031-3.176-4.609-4.917l-.195-.217c-.29-.327-.573-.657-.872-1.006a30.4,30.4,0,0,0-2.3-2.5,8.959,8.959,0,0,0-2.737-1.835.152.152,0,0,1-.1-.173.143.143,0,0,1,.144-.117.2.2,0,0,1,.035,0,9.587,9.587,0,0,1,4.085,2.019A48.334,48.334,0,0,0,82.434,13.2l-.545-.237a53.779,53.779,0,0,0-5.68-2.157,20.42,20.42,0,0,0-5.9-.984c-.305,0-.61.01-.906.029a8.088,8.088,0,0,0-2.522.574,5.911,5.911,0,0,0-2.131,1.442,11.066,11.066,0,0,0-1.415,2.122,13.474,13.474,0,0,1-1.135,1.8,5.42,5.42,0,0,1-4.331,2.087l-.863.026a16.114,16.114,0,0,0-2.952.3,28.009,28.009,0,0,0-4.112,1.2,16.982,16.982,0,0,0-3.782,1.988A6.428,6.428,0,0,0,44.075,23.7a8.027,8.027,0,0,0-.551,2.9,5.051,5.051,0,0,0,.024.576,3.09,3.09,0,0,1-.019.96c0-.017.008-.025.012-.025s.008.019.009.057a1.755,1.755,0,0,1,.642,1.246,70.771,70.771,0,0,1,7.049-3.17c2.735-1.067,5.561-1.917,8.207-2.677a50.9,50.9,0,0,1,5.469-1.141c.929-.158,1.889-.322,2.825-.51a.351.351,0,0,1,.069-.007.262.262,0,0,1,.263.22.277.277,0,0,1-.186.317c-1.256.482-2.514,1.012-3.73,1.524h0c-1.591.67-3.237,1.362-4.893,1.956-3.178,1.139-6.009,2.264-8.657,3.44a50.756,50.756,0,0,0-15.1,9.739,50.193,50.193,0,0,0-5.7,6.715c-1.857,2.58-3.542,5.308-4.8,7.4-1.5,2.487-2.957,5.081-4.33,7.71-1.343,2.571-2.642,5.248-3.862,7.955A162.893,162.893,0,0,0,3.452,119.041c-.282,2.887-.473,5.763-.567,8.548-.1,2.89-.094,5.765.011,8.543a64.685,64.685,0,0,0,2.4,15.99A43.988,43.988,0,0,0,8.1,159.339c.549,1.1,1.194,2.155,1.818,3.179a36.1,36.1,0,0,1,2.166,3.913,1.322,1.322,0,0,1,.122.582,8.3,8.3,0,0,0,2.889,1.626,10.531,10.531,0,0,0,3.253.481,16.049,16.049,0,0,0,2.907-.286,24.226,24.226,0,0,0,2.916-.745,42.576,42.576,0,0,0,5.39-2.193c6.339-3.031,12.084-5.958,17.564-8.947,6-3.274,11.71-6.65,16.968-10.034,5.174-3.33,10.4-6.955,15.977-11.081,4.763-3.523,9.789-7.42,15.366-11.915a24.877,24.877,0,0,1-2.074-2.526,19.45,19.45,0,0,1-2.835-5.6,17.588,17.588,0,0,1-.752-3.6,19.37,19.37,0,0,1-.024-3.68l.061-.691a53.288,53.288,0,0,1,.949-6.9.048.048,0,0,1,.051-.042.063.063,0,0,1,.058.042,48.737,48.737,0,0,1,1.366,6.273v0h0a42.751,42.751,0,0,0,1.64,7.092,17.053,17.053,0,0,0,2.721,4.844,13.974,13.974,0,0,0,1.669,1.689,5.276,5.276,0,0,1,.173-.8l.064-.207a4.333,4.333,0,0,1,.314-.777c-.2-.059-.389-.12-.566-.186a.193.193,0,0,1-.122-.192.146.146,0,0,1,.122-.137,8.4,8.4,0,0,1,1.5-.193,1.062,1.062,0,0,1,.162-.012l.074,0c.159,0,.322-.007.5-.007.457,0,.919.016,1.366.032h0c.323.012.657.023.977.029,1.53.023,3.158.052,4.773.124.766.033,1.538.093,2.355.157,1.224.1,2.489.194,3.727.194a14.763,14.763,0,0,0,3.4-.344,14.931,14.931,0,0,0,4-1.685,32.108,32.108,0,0,0,3.593-2.483,32.5,32.5,0,0,0,4.279-4.267c.222-.251.452-.51.684-.769-.134.021-.242.037-.339.05l-1.021.14a13.682,13.682,0,0,1-1.781.145,3.934,3.934,0,0,1-2.061-.457.474.474,0,0,1-.24-.462.55.55,0,0,1,.359-.458,3.75,3.75,0,0,1,1.309-.192c.312,0,.631.02.94.039h.009c.305.019.62.039.919.039.1,0,.188,0,.276-.006a16.525,16.525,0,0,0,2.619-.315c.29-.06.573-.13.842-.207a5.906,5.906,0,0,0,1.938-.988,3.712,3.712,0,0,0,1.281-1.652,2.266,2.266,0,0,0,.105-1.1,2.749,2.749,0,0,0-.508-1.178.1.1,0,0,1-.017-.1.141.141,0,0,1,.107-.078l.027,0a.123.123,0,0,1,.081.03,2.681,2.681,0,0,1,1,2.277,3.9,3.9,0,0,1-.562,1.776A4.337,4.337,0,0,1,133.62,108a7.071,7.071,0,0,1-1.981.9.85.85,0,0,1,0,.837,16.946,16.946,0,0,1-2.623,3.416,32.989,32.989,0,0,1-3.224,2.88,30,30,0,0,1-3.575,2.477,17.465,17.465,0,0,1-3.976,1.737,13.366,13.366,0,0,1-3.65.45,40.823,40.823,0,0,1-4.4-.322h0c-.616-.067-1.253-.137-1.867-.191-1.644-.144-3.361-.321-5.249-.539-.361-.041-.722-.074-1.1-.11l-.343-.032a12.842,12.842,0,0,1,.939,1.5c.048.086.093.167.135.239a2.454,2.454,0,0,1,.129,2.17,2.412,2.412,0,0,1-1.591,1.427,2.024,2.024,0,0,1-.483.073,2.3,2.3,0,0,1-.744.852,1.857,1.857,0,0,1-1.049.348,1.526,1.526,0,0,1-.5-.083,5.881,5.881,0,0,1-1.134-.537c-2.772,2.435-5.708,4.875-8.726,7.252-2.9,2.283-5.953,4.572-9.079,6.8-5.73,4.088-11.619,8.008-17.5,11.65-6,3.712-12.134,7.227-18.245,10.448-2.956,1.558-5.717,2.958-8.441,4.279l-2.442,1.177a52.053,52.053,0,0,1-8.338,3.4,15.808,15.808,0,0,1-1.746.382.716.716,0,0,0-.006.154A6.743,6.743,0,0,1,21.918,171.089Zm-6.15-37.925a.1.1,0,0,1-.071-.033.1.1,0,0,1-.021-.081,4.8,4.8,0,0,1,1.254-2.6,9.224,9.224,0,0,1,2.337-1.775,51.489,51.489,0,0,1,5.567-2.587c.571-.238,1.159-.484,1.735-.731l.333-.144c4.363-1.9,9.151-3.911,15.068-6.319a1.068,1.068,0,0,1-.082-.389l-.015,0a4.685,4.685,0,0,1,.456-2.132c.063-.163.128-.332.187-.5l.883-2.49c.465-1.312.9-2.656,1.319-3.957.111-.346.227-.7.34-1.053.451-1.39.914-2.8,1.362-4.168l.027-.083.072-.22.253-.771c.134-.408.253-.828.379-1.274a12.784,12.784,0,0,1,1.262-3.293.178.178,0,0,1,.155-.083.208.208,0,0,1,.157.069.143.143,0,0,1,.032.121,13.32,13.32,0,0,1-.651,3.614c-.13.473-.253.919-.355,1.364l-.166.723c-.332,1.445-.675,2.939-1.019,4.418l-.358,1.535c-.271,1.164-.584,2.516-.856,3.846-.08.391-.142.823-.208,1.281v0a15.945,15.945,0,0,1-.454,2.335c2.447-.99,4.938-1.99,7.346-2.958l.01,0,.125-.05c1.7-.684,3.465-1.392,5.2-2.09,3.639-1.468,7.35-2.931,10.94-4.346l0,0,.022-.009c1.534-.6,3.12-1.23,4.678-1.847,1.648-.652,3.318-1.342,4.933-2.01h0c3.493-1.444,7.105-2.938,10.726-4.138a1.08,1.08,0,0,1,.341-.057,1.225,1.225,0,0,1,1.118,1.013,1.146,1.146,0,0,1-.046.683.97.97,0,0,1-.506.513c-3.7,1.715-7.6,3.2-11.377,4.629-1.715.651-3.488,1.324-5.216,2.009L65.01,112.3c-6.635,2.633-14.354,5.684-21.985,8.577-1.354.513-2.729,1.039-4.059,1.548h0c-3.589,1.372-7.3,2.792-10.977,4.107-.909.325-1.836.649-2.733.962h0c-1.474.515-3,1.047-4.485,1.6a12.2,12.2,0,0,0-2.929,1.476,6.16,6.16,0,0,0-1.184,1.1,4.7,4.7,0,0,0-.8,1.429A.088.088,0,0,1,15.768,133.164ZM44.847,91.928a.746.746,0,0,1-.72-.456,16.243,16.243,0,0,1-.964-5.347c-.046-.683-.093-1.389-.173-2.069-.3-2.549-.709-5.144-1.225-7.714A128.963,128.963,0,0,0,37.86,61.891l-.172-.528a.269.269,0,0,1,.03-.257.384.384,0,0,1,.309-.156.282.282,0,0,1,.263.159,69.941,69.941,0,0,1,3.064,7.216c.855,2.366,1.633,4.887,2.312,7.493.641,2.462,1.182,4.947,1.607,7.384l.142.829.081.45q.039.211.078.425l0,.016a30.5,30.5,0,0,1,.475,3.191,9.125,9.125,0,0,1-.232,3.138A1.014,1.014,0,0,1,44.847,91.928Zm7.969-20.866a.735.735,0,0,1-.687-.4,32.044,32.044,0,0,1-2.091-6.02l-.012-.043-.121-.44c-.589-2.133-1.212-4.292-1.815-6.38l0-.01c-.4-1.383-.8-2.792-1.181-4.154l0-.008c-.206-.73-.419-1.485-.63-2.226-.118-.416-.243-.832-.375-1.273v0a24.217,24.217,0,0,1-1.166-5.255.228.228,0,0,1,.058-.176.264.264,0,0,1,.193-.077.286.286,0,0,1,.239.12,23.5,23.5,0,0,1,2.336,5.155c.1.28.2.569.309.852l.073.2c.844,2.269,1.568,4.322,2.214,6.278.267.807.554,1.636.832,2.438a43.063,43.063,0,0,1,2.7,10.6.7.7,0,0,1-.188.538A.94.94,0,0,1,52.816,71.062Zm49.336-11.278a1.247,1.247,0,0,1-.424-.079A32.726,32.726,0,0,1,97.2,57.648a38.9,38.9,0,0,1-4.171-2.654,56.411,56.411,0,0,1-7.431-6.583c-2.56-2.656-4.829-5.441-6.711-7.815-1.148-1.448-2.091-2.656-2.968-3.8l-.585-.768c-.325-.429-.676-.866-1.016-1.289a21.289,21.289,0,0,1-2.616-3.78.14.14,0,0,1,.01-.134.118.118,0,0,1,.1-.06.112.112,0,0,1,.064.022,20.5,20.5,0,0,1,3.185,2.984h0c.332.358.675.729,1.014,1.076,1.328,1.363,2.678,2.779,4.011,4.207.8.855,1.6,1.73,2.383,2.576l0,0c1.379,1.5,2.8,3.044,4.236,4.539a58.222,58.222,0,0,0,7.2,6.5,36.589,36.589,0,0,0,4.055,2.636,29.5,29.5,0,0,0,4.423,2.011,1.229,1.229,0,0,1,.706.607,1.379,1.379,0,0,1,.116.848,1.338,1.338,0,0,1-.347.705A.972.972,0,0,1,102.153,59.784Z" transform="translate(7.32 -3.014)"/>
    </g>
    <g id="head_Twists" data-name="head/Twists" transform="translate(-23130.842 -2921.5)">
      <path id="_Skin-2" data-name="âœ‹ Skin" d="M57.077,107.9h0A51.916,51.916,0,0,1,26.289,97.813a2.689,2.689,0,0,1-1-1.33,2.251,2.251,0,0,1,.016-1.411,19.806,19.806,0,0,1-2.387-2.443,20.838,20.838,0,0,1-1.973-2.853,20.3,20.3,0,0,1-1.471-3.154,18.564,18.564,0,0,1-.881-3.344,1.02,1.02,0,0,0-.6-.64,4.181,4.181,0,0,0-.943-.252c-.144-.027-.279-.052-.41-.083A22.518,22.518,0,0,1,9.8,80.214a8.472,8.472,0,0,1-2.623-2.17,6.9,6.9,0,0,1-.89-1.5,7.662,7.662,0,0,1-.524-1.834A13.765,13.765,0,0,1,5.77,71.6a13.159,13.159,0,0,1,.6-2.662,26.524,26.524,0,0,1,2.185-4.555c.52-.924,1.057-1.88,1.5-2.864A13.754,13.754,0,0,0,11.1,58.375a11.968,11.968,0,0,0,.107-3.743A18.313,18.313,0,0,0,9.93,49.976a73.073,73.073,0,0,0-4.05-10.3c-1.1-2.457-2.238-5-3.216-7.54A43.731,43.731,0,0,1,.4,24.6a22.53,22.53,0,0,1-.4-3.61A15.283,15.283,0,0,1,.29,17.571a11.626,11.626,0,0,1,3.219-6A10.022,10.022,0,0,1,6.446,9.55a8.357,8.357,0,0,1,3.422-.757,7.379,7.379,0,0,1,1.517.157A92.638,92.638,0,0,1,51.071,0,89.342,89.342,0,0,1,71.91,2.445l.277.066A39.444,39.444,0,0,1,76.44,3.7,12.482,12.482,0,0,1,80.275,5.8,4.383,4.383,0,0,1,81.647,7.61a3.23,3.23,0,0,1,.109,1.833A12.179,12.179,0,0,1,79.8,13.255,19.028,19.028,0,0,0,77.912,16.6a6.282,6.282,0,0,0-.438,1.767,4.685,4.685,0,0,0,.2,1.843c.425.594,1.18,1.8,2.019,3.224.7,1.182,1.778,3.07,2.98,5.353,1.792,3.4,4.1,8.154,4.887,11.449s1.313,5.051,1.5,5.051c.029,0,.044-.04.053-.07,0-.013.007-.025.01-.036s.008-.034.012-.034a3.409,3.409,0,0,1,.072.541c.073.64.224,1.971.566,4.669.415,3.277.925,7.608,1.186,12.056a84.272,84.272,0,0,1-.076,12.134,57.255,57.255,0,0,1-.808,5.923,46.19,46.19,0,0,1-1.48,5.735,39.423,39.423,0,0,1-2.271,5.477,36.355,36.355,0,0,1-3.181,5.15,27.671,27.671,0,0,1-2.395,2.5,31.047,31.047,0,0,1-4.605,3.5,32.481,32.481,0,0,1-6.937,3.254,35.8,35.8,0,0,1-9.388,1.745C58.91,107.879,57.988,107.9,57.077,107.9ZM2.461,20.883a18.938,18.938,0,0,0,.421,3.124,16.267,16.267,0,0,1,.82-2.259A2.178,2.178,0,0,1,2.461,20.883ZM10.015,9.605a7.655,7.655,0,0,0-2.516.958A9.62,9.62,0,0,0,5.361,12.3,34.012,34.012,0,0,1,10.015,9.605Z" transform="translate(11.225 12.688)" fill="#d08b5b"/>
      <path id="_Ink-2" data-name="ðŸ– Ink" d="M69.614,123.793a31.607,31.607,0,0,1-10-1.626,30.847,30.847,0,0,1-4.668-2,29.574,29.574,0,0,1-4.274-2.76,1.715,1.715,0,0,1-.567-2.015,2.644,2.644,0,0,1,.831-1.176,2.109,2.109,0,0,1,1.307-.5,1.751,1.751,0,0,1,1.02.334,30.727,30.727,0,0,0,8.112,4.067,28.492,28.492,0,0,0,8.848,1.43,26.12,26.12,0,0,0,10.034-1.976,25.712,25.712,0,0,0,5.066-2.814,27.852,27.852,0,0,0,4.364-3.86,28.425,28.425,0,0,0,3.482-4.677,27.064,27.064,0,0,0,2.419-5.266A63.925,63.925,0,0,0,98,87.826c.046-.412.1-.878.15-1.334l.037-.323c.3-2.6.529-5.163.681-7.627.161-2.6.241-5.176.239-7.653s-.094-4.7-.282-6.834a56.489,56.489,0,0,0-.926-6.437,50.544,50.544,0,0,0-1.707-6.272,55.691,55.691,0,0,0-2.624-6.339,45.534,45.534,0,0,0-7.547-11.083,3.5,3.5,0,0,1-.7.066,9.471,9.471,0,0,1-1.395-.141h0c-.242-.037-.493-.074-.735-.1-.533-.057-1-.1-1.427-.144.465.3.933.62,1.431.976l.614.443.291.208.015.011a13.635,13.635,0,0,1,2.656,2.246,3.671,3.671,0,0,1,.906,3.144,1.9,1.9,0,0,1-.563.981,2.188,2.188,0,0,1-.984.564,3.352,3.352,0,0,1-.775.093,3.943,3.943,0,0,1-2.229-.774,14.791,14.791,0,0,1-1.909-1.651c-.36-.349-.7-.678-1.044-.972-1.493-1.274-3.032-2.4-4.609-3.531-.416-.3-.76-.541-1.084-.766.328.382.664.79,1,1.211l.479.607.251.313a14.379,14.379,0,0,1,1.99,2.937,3.482,3.482,0,0,1,.008,3.275,2.1,2.1,0,0,1-.789.79,2.153,2.153,0,0,1-1.078.3H76.3a3.407,3.407,0,0,1-2.481-1.2,12.811,12.811,0,0,1-1.65-2.452c-.247-.434-.48-.845-.724-1.218-1.1-1.68-2.321-3.273-3.367-4.609-.373-.473-.685-.867-.983-1.237a102.389,102.389,0,0,0-16.256,2.159c-3.243.7-6.7,1.636-10.875,2.945l-.3.095a13.477,13.477,0,0,0-5.341,2.8,7.2,7.2,0,0,0,.145,2.886l.149.723a42.688,42.688,0,0,1,.707,4.513,23.33,23.33,0,0,1,.012,4.574,33.661,33.661,0,0,1-2.464,9.048,3.876,3.876,0,0,1-.7,1.162,2.439,2.439,0,0,0-.632,1.488,15.774,15.774,0,0,0,.046,3.481l.087.979a19.364,19.364,0,0,1,.034,3.905,6.894,6.894,0,0,1-1.389,3.569.522.522,0,0,1-.418.188.7.7,0,0,1-.587-.318,4.189,4.189,0,0,0-.237-.373,4.719,4.719,0,0,0-1.507-1.394,5.977,5.977,0,0,0-1.965-.707.117.117,0,0,1-.107-.122.18.18,0,0,1,.149-.171,4.957,4.957,0,0,1,3.3.778c-.185-.641-.893-.966-2.1-.966a13.278,13.278,0,0,0-3.068.46l-.04.011a11.97,11.97,0,0,0-4.043,1.923,9.524,9.524,0,0,0-1.63,1.531,9.257,9.257,0,0,0-1.2,1.836,9.148,9.148,0,0,0-.948,4.288,8.677,8.677,0,0,0,1.162,4.165,8.046,8.046,0,0,0,1.322,1.7,7.9,7.9,0,0,0,1.771,1.3,8.615,8.615,0,0,0,4.081,1.006h.092a9.863,9.863,0,0,0,2.023-.3,9.536,9.536,0,0,1,2.043-.295c.1,0,.2,0,.294.009a1.332,1.332,0,0,1,1.083.7,1.1,1.1,0,0,1-.046,1.107,4.135,4.135,0,0,1-1.283,1.305,42.9,42.9,0,0,0,4.636,8.084,26.711,26.711,0,0,0,3.406,3.853,11.424,11.424,0,0,0,.9.719,10.084,10.084,0,0,1,1.457,1.249,2.069,2.069,0,0,1,.635,1.542,1.193,1.193,0,0,1-.83,1.093,1.553,1.553,0,0,1-.591.114c-1.277,0-2.679-1.454-3.607-2.416-.1-.108-.212-.22-.31-.32l-.084-.085a29.141,29.141,0,0,1-3.526-4.256,20.984,20.984,0,0,1-2.234-4.29,22.091,22.091,0,0,1-1.211-4.663,8.28,8.28,0,0,1-2.376.318,13.211,13.211,0,0,1-2.947-.353,13.774,13.774,0,0,1-2.546-.843,10.578,10.578,0,0,1-2.149-1.3,10.921,10.921,0,0,1-1.747-1.715A11.644,11.644,0,0,1,14,89.976a12.341,12.341,0,0,1-.89-2.269,12.625,12.625,0,0,1-.358-5.134,11.821,11.821,0,0,1,.638-2.522,11.139,11.139,0,0,1,3.993-5.186,2.64,2.64,0,0,1-.656-.505,17.3,17.3,0,0,1-2.4-3.641l-.237-.433L14,70.119c-.681-1.23-1.329-2.491-1.926-3.747l-.224-.477c-.512-1.1-.995-1.957-1.462-2.785A21.2,21.2,0,0,1,8.37,58.7a61.332,61.332,0,0,1-2.121-8.962l-.125-.8a21.156,21.156,0,0,1-.331-5.442,7.253,7.253,0,0,1-2.342.453,3.869,3.869,0,0,1-1.758-.4A2.155,2.155,0,0,1,.7,42.4a2.255,2.255,0,0,1-.091-1.509,3.694,3.694,0,0,1,1.064-1.635A3.835,3.835,0,0,1,.9,38.73l-.2-.175a2.133,2.133,0,0,1-.685-1.412,2.69,2.69,0,0,1,.3-1.548c.045-.078.093-.165.144-.258a2.8,2.8,0,0,1,2.381-1.386H2.88l.235,0,.236,0a4.183,4.183,0,0,1-1.313-.512A2.618,2.618,0,0,1,.989,32.2a2.9,2.9,0,0,1-.184-1.563,2.617,2.617,0,0,1,.581-1.293,2.427,2.427,0,0,1,1.289-.78,5.063,5.063,0,0,1,1.183-.132,8.285,8.285,0,0,1,1.9.244l-.021-.012c-.031-.018-.064-.037-.1-.057a3.158,3.158,0,0,1-1.026-1.032,2.356,2.356,0,0,1-.369-1.4,3.423,3.423,0,0,1,.368-1.412,2.675,2.675,0,0,1,1.027-1.024A2.906,2.906,0,0,1,7.1,23.35a2.534,2.534,0,0,1,1.387.387,23.964,23.964,0,0,1,2.1,1.55,7.089,7.089,0,0,1-1.51-2.713,2.86,2.86,0,0,1,1.281-3.148,2.578,2.578,0,0,1,1.316-.365,2.947,2.947,0,0,1,1.276.306,2.756,2.756,0,0,1,.529-1.847,3.592,3.592,0,0,1,1.1-.99,2.788,2.788,0,0,1,1.376-.386,2.423,2.423,0,0,1,1.306.385,3.9,3.9,0,0,1,.649.542,3.639,3.639,0,0,1-.173-1.077,2.869,2.869,0,0,1,.174-1.016,2.617,2.617,0,0,1,1.494-1.5,2.728,2.728,0,0,1,1.054-.2,3.1,3.1,0,0,1,1.971.691,2.666,2.666,0,0,1,.606-2.217,3.253,3.253,0,0,1,1.07-.835,2.99,2.99,0,0,1,1.3-.31A2.515,2.515,0,0,1,27.649,12c.417.75.759,1.42,1.047,2.05l.119.265.012,0-.082-.194-.084-.194c-.086-.2-.177-.4-.266-.6l0,0a9.959,9.959,0,0,1-.9-2.636,3.917,3.917,0,0,1,.039-1.354,2.865,2.865,0,0,1,.511-1.148A2.6,2.6,0,0,1,29.813,7.2a2.5,2.5,0,0,1,.334-.022,3.049,3.049,0,0,1,2.267,1.062,3.044,3.044,0,0,1,.108-1.311,2.92,2.92,0,0,1,.6-1.064,2.712,2.712,0,0,1,2.026-.948,2.768,2.768,0,0,1,1.891.793,8.971,8.971,0,0,1,1.741,2.652c.127.254.258.516.392.767.161.3.327.607.487.9l0,.005c.19.351.386.714.579,1.075.089-.106.187-.213.29-.32a43.957,43.957,0,0,1-1.276-4.8A3.186,3.186,0,0,1,39.544,3.8a2.753,2.753,0,0,1,1.72-1.362,2.678,2.678,0,0,1,.713-.094,3.119,3.119,0,0,1,1.788.574A2.538,2.538,0,0,1,44.81,4.454c.21,1,.466,2.047.783,3.192a5.169,5.169,0,0,1,.593-.107c.017-.2.035-.406.055-.6l.077-.706.016-.149A11.344,11.344,0,0,1,47.5,1.411,2.7,2.7,0,0,1,49.847.092a2.934,2.934,0,0,1,1.927.723,2.614,2.614,0,0,1,.638.854,2.773,2.773,0,0,1,.253,1.14,10.534,10.534,0,0,1-.417,2.633c-.132.537-.269,1.092-.347,1.638-.081.57-.136,1.181-.168,1.867a55.574,55.574,0,0,1,1.557-6.137c.05-.163.1-.329.153-.49h0l.006-.017.068-.216A3.028,3.028,0,0,1,54.578.564,2.851,2.851,0,0,1,56.3,0a3.161,3.161,0,0,1,.374.023,3.055,3.055,0,0,1,1.787.943,2.37,2.37,0,0,1,.709,1.882c-.028.258-.066.514-.115.764l.006,0h.006l-.032.093a4.765,4.765,0,0,1-.422,1.225c-.272.793-.53,1.582-.725,2.181.073,0,.144,0,.211,0a4.563,4.563,0,0,1,.833.075c.16-.409.323-.825.481-1.227l.007-.018c.2-.512.409-1.042.613-1.566.095-.242.181-.5.272-.763a5.86,5.86,0,0,1,1.172-2.3A3.279,3.279,0,0,1,63.791.4,3.2,3.2,0,0,1,65.4.818a2.983,2.983,0,0,1,1.312,1.495,3.571,3.571,0,0,1,.145,2,2.25,2.25,0,0,1-1.226,1.548l-.065.033-.461,1.093a3.8,3.8,0,0,1,.446-.164,3.666,3.666,0,0,1,.732-.139c.587-1.063,1.265-2.172,2.133-3.489a3.255,3.255,0,0,1,1.116-1.046,2.924,2.924,0,0,1,1.427-.381,2.77,2.77,0,0,1,1.416.39,3.108,3.108,0,0,1,1.386,1.992,2.459,2.459,0,0,1-.349,1.966c-.594.836-1.205,1.748-1.981,2.955a2.844,2.844,0,0,1,.324.076c.05-.067.1-.134.154-.2a14.692,14.692,0,0,1,2-1.94l.353-.3a5.624,5.624,0,0,0,.8-.933,3.967,3.967,0,0,1,1.373-1.327A3.063,3.063,0,0,1,77.8,4.122a2.683,2.683,0,0,1,1.28.319,2.584,2.584,0,0,1,.989.96,3.049,3.049,0,0,1,.047,3.291A11.536,11.536,0,0,1,77.759,11.3l0,0c-.206.187-.4.364-.588.54a43.772,43.772,0,0,1,4.8-2.606c1.126-.518,2-.887,2.826-1.2a4.193,4.193,0,0,1,1.468-.293,3.015,3.015,0,0,1,1.153.225,4.122,4.122,0,0,1,1.108.69,1.885,1.885,0,0,1,.554.944,1.856,1.856,0,0,1-.015,1.094,3.92,3.92,0,0,1-.932,1.488,3.531,3.531,0,0,1-1.547.835c-.421.116-.854.216-1.273.313-.48.111-.976.226-1.458.365a30.05,30.05,0,0,0-4.407,1.625,2.278,2.278,0,0,1,.29.21c1.038-.336,2.127-.637,3.235-.9a41.809,41.809,0,0,1,5.487-.888l.613-.057.352-.035h.008c.685-.068,1.394-.138,2.091-.138a5.851,5.851,0,0,1,2.119.332,3.338,3.338,0,0,1,1.66,1.355,2.483,2.483,0,0,1,.353,1.273,2.137,2.137,0,0,1-.353,1.267,3.562,3.562,0,0,1-1.5,1.3,5.085,5.085,0,0,1-1.96.319c1.511.16,3.063.363,4.614.6,1.042.159,2.106.342,3.164.546l.525.1c.218.044.445.085.664.125h0a8.143,8.143,0,0,1,3.145,1.022,2.965,2.965,0,0,1,1.14,1.355,2.519,2.519,0,0,1,.107,1.525,2.823,2.823,0,0,1-.891,1.463,3.225,3.225,0,0,1-1.742.77,3.955,3.955,0,0,1-.489.029,10.167,10.167,0,0,1-2.431-.416c-.367-.093-.713-.181-1.055-.25-1.2-.242-2.444-.462-3.689-.654-.6-.094-1.225-.181-1.92-.268a26.755,26.755,0,0,1,3.863.829l.351.106a18.41,18.41,0,0,1,3.875,1.568,7.075,7.075,0,0,1,1.624,1.262,4.259,4.259,0,0,1,.992,1.7,2.248,2.248,0,0,1-.321,1.958,2.662,2.662,0,0,1-2.007,1.1c-.066,0-.133.006-.2.006a6.233,6.233,0,0,1-2.957-1.039c-.214-.118-.435-.241-.653-.353a16.041,16.041,0,0,0-2.718-1.084c-.953-.292-1.956-.545-2.982-.752a23.473,23.473,0,0,1,2.471,1.558l.365.27a19.552,19.552,0,0,1,3.364,2.962A6.143,6.143,0,0,1,99.177,37.3a3.642,3.642,0,0,1,.106,2.11,2.388,2.388,0,0,1-.787,1.2,2.111,2.111,0,0,1-1.331.534c-.05,0-.1,0-.148-.007a4.444,4.444,0,0,1-2.28-.95,15.33,15.33,0,0,1-1.878-1.79,15.24,15.24,0,0,0-1.818-1.739c-.483-.365-1.039-.748-1.654-1.137a43.212,43.212,0,0,1,3.995,5.661A51.64,51.64,0,0,1,96.5,47.353a61.869,61.869,0,0,1,4.057,13.667c.39,2.226.67,4.493.855,6.933.172,2.265.26,4.639.267,7.258v.309c.006,6.777-.2,11.894-.656,16.59a56.508,56.508,0,0,1-1.179,7.5,32.239,32.239,0,0,1-2.528,7.144,29.25,29.25,0,0,1-3.525,5.416,31.97,31.97,0,0,1-4.624,4.59,32.622,32.622,0,0,1-5.453,3.576A30.786,30.786,0,0,1,77.7,122.71,30.414,30.414,0,0,1,69.614,123.793ZM25.759,36.634h0a.672.672,0,0,0-.487.222,9.674,9.674,0,0,0-1.59,2.467.715.715,0,0,0,.025.719.831.831,0,0,0,.676.392.616.616,0,0,0,.563-.372l.192-.383A7.639,7.639,0,0,1,26.209,38l.1-.105a.681.681,0,0,0,.15-.766.794.794,0,0,0-.7-.491ZM16.88,35.18a.845.845,0,0,0-.14.012c-.6.1-1.208.211-1.8.317s-1.191.215-1.788.316a.592.592,0,0,0-.527.67.806.806,0,0,0,.776.753.844.844,0,0,0,.14-.012c.6-.1,1.2-.21,1.79-.316s1.195-.216,1.794-.317a.592.592,0,0,0,.527-.67A.806.806,0,0,0,16.88,35.18Zm55.245-8.251a.682.682,0,0,0-.644.613.8.8,0,0,0,.074.494.717.717,0,0,0,.421.346,29.28,29.28,0,0,1,3.62,1.4.766.766,0,0,0,.338.081.811.811,0,0,0,.757-.631.609.609,0,0,0-.356-.715,32.457,32.457,0,0,0-3.969-1.55A.759.759,0,0,0,72.125,26.929ZM16.652,25.017a.638.638,0,0,0-.6.564.785.785,0,0,0,.473.9l3.162,1.265a.72.72,0,0,0,.266.055.638.638,0,0,0,.6-.564.785.785,0,0,0-.473-.9l-3.162-1.265A.719.719,0,0,0,16.652,25.017Zm66.262-3.576h0a.732.732,0,0,0-.666.556.752.752,0,0,0,0,.444.714.714,0,0,0,.3.385c.184.119.386.224.582.326a4.7,4.7,0,0,1,.868.534l.089.079a.705.705,0,0,0,.488.2.815.815,0,0,0,.725-.507.644.644,0,0,0-.177-.733,5.613,5.613,0,0,0-1.181-.788c-.178-.1-.363-.2-.539-.308l-.116-.073a.691.691,0,0,0-.377-.12ZM28.673,87.764a1.231,1.231,0,0,1-.983-.618,10.434,10.434,0,0,0-5.964-4.97.069.069,0,0,1-.04-.068.044.044,0,0,1,.04-.041,7.112,7.112,0,0,1,1.084-.084,7.283,7.283,0,0,1,2.041.3,8.4,8.4,0,0,1,1.883.82,10.817,10.817,0,0,1,3.1,2.8,1.264,1.264,0,0,1-.2,1.5,1.142,1.142,0,0,1-.858.361l-.018,0A.671.671,0,0,1,28.673,87.764Z" transform="translate(1.464 0.244)"/>
    </g>
    <g id="face_Smile" data-name="face/Smile" transform="translate(-23090.58 -2880.75)">
      <path id="_Ink-3" data-name="ðŸ– Ink" d="M26.361,46.8a9.3,9.3,0,0,1-3.525-.7,9.958,9.958,0,0,1-2.3-1.322,9.8,9.8,0,0,1-1.873-1.889,1.935,1.935,0,0,1-.39-1.5,2.16,2.16,0,0,1,.841-1.353,2.071,2.071,0,0,1,1.232-.429,1.788,1.788,0,0,1,.275.021,1.9,1.9,0,0,1,1.274.842l.075.1a6.577,6.577,0,0,0,2.41,2.022,5.471,5.471,0,0,0,2.39.558,5.3,5.3,0,0,0,.592-.033,6.224,6.224,0,0,0,2.631-.925,12.321,12.321,0,0,0,2.229-1.86c.16-.163.329-.34.548-.573a.867.867,0,0,1,.455-.35.932.932,0,0,1,.3-.047,1.007,1.007,0,0,1,.824.43.919.919,0,0,1,.156.605,5.554,5.554,0,0,1-.659,2.152,7.183,7.183,0,0,1-1.409,1.809A9.056,9.056,0,0,1,30.3,45.849a8.884,8.884,0,0,1-2.368.812A8.721,8.721,0,0,1,26.361,46.8Zm2.481-14.051h0a8.518,8.518,0,0,1-3.037-.612,15.341,15.341,0,0,1-3.572-2.027,1.373,1.373,0,0,1-.5-.793,1.642,1.642,0,0,1,.071-.89,2.025,2.025,0,0,1,.6-.869,1.464,1.464,0,0,1,.937-.366,1.33,1.33,0,0,1,.725.222l.242.186,0,0a19.34,19.34,0,0,0,2.236,1.555,5.509,5.509,0,0,0,2.68.855,2.894,2.894,0,0,0,1.133-.223,3.165,3.165,0,0,0,1.055-.747,3.234,3.234,0,0,0,.614-2.6,4.918,4.918,0,0,0-1.305-2.31,9.518,9.518,0,0,0-1.976-1.595.613.613,0,0,1-.166-.7.919.919,0,0,1,.3-.438.935.935,0,0,1,.583-.193,1.243,1.243,0,0,1,.21.018,6.626,6.626,0,0,1,2.33.842,5.286,5.286,0,0,1,1.567,1.445,5.741,5.741,0,0,1,1,3.835,6.319,6.319,0,0,1-.513,2.013,5.873,5.873,0,0,1-1.155,1.73A5.521,5.521,0,0,1,28.842,32.753ZM9.077,19.032a1.992,1.992,0,0,1-1.293-.507,2.013,2.013,0,0,1-.678-1.3A14.664,14.664,0,0,1,7.184,13.4c.046-.371.094-.755.127-1.168A2.286,2.286,0,0,1,8.178,10.6a2.669,2.669,0,0,1,1.642-.577,2.023,2.023,0,0,1,1.241.391,1.841,1.841,0,0,1,.686,1.22,10.245,10.245,0,0,1-1.07,6.314,2.026,2.026,0,0,1-.714.827A1.648,1.648,0,0,1,9.077,19.032Zm29.012-.866a1.742,1.742,0,0,1-1.366-.585,5.338,5.338,0,0,1-.834-1.415,6.165,6.165,0,0,1-.425-1.705,3.614,3.614,0,0,1,.986-3.1,2.046,2.046,0,0,1,.158-.241,2.233,2.233,0,0,1,1.718-.988,1.861,1.861,0,0,1,.522.077,2.512,2.512,0,0,1,1.678,1.464,5.178,5.178,0,0,1,.208,2.832,9.48,9.48,0,0,1-.859,2.672,1.734,1.734,0,0,1-.742.733A2.249,2.249,0,0,1,38.09,18.166ZM.321,9.067a.316.316,0,0,1-.264-.162.354.354,0,0,1-.021-.347,12.036,12.036,0,0,1,2.7-3.416A16.686,16.686,0,0,1,6.347,2.675a15.533,15.533,0,0,1,4.289-1.5l.458-.08A11.161,11.161,0,0,1,12.966.9a2.892,2.892,0,0,1,2.31.861,1.962,1.962,0,0,1,.464,1.394,1.277,1.277,0,0,1-.464.911,3.558,3.558,0,0,1-2.439.715c-.192,0-.391,0-.583-.01h-.007c-.185,0-.394-.01-.6-.01-.192,0-.362,0-.522.014a16.492,16.492,0,0,0-3.631.619,24.67,24.67,0,0,0-7,3.622A.3.3,0,0,1,.321,9.067ZM44.5,7.219h0L44.3,7.171a10.927,10.927,0,0,1-2.118-.826L41.5,6.006A19.1,19.1,0,0,0,39.04,4.959a28.987,28.987,0,0,0-5.6-1.236A2.286,2.286,0,0,1,32.322,3.3a1.682,1.682,0,0,1-.628-.956A1.711,1.711,0,0,1,31.887.908a1.826,1.826,0,0,1,.886-.764A1.993,1.993,0,0,1,33.529,0a2.225,2.225,0,0,1,.436.044l.351.072a25.042,25.042,0,0,1,6.043,1.963,12.219,12.219,0,0,1,2.658,1.747A7.758,7.758,0,0,1,44.9,6.254c.066.507,0,.633-.063.718L44.812,7,44.8,7.02a.486.486,0,0,1-.3.2Z" transform="translate(12.932 12.689)"/>
    </g>
    <g id="accessories_Glasses_2" data-name="accessories/Glasses 2" transform="translate(-23119.375 -2868.916)">
      <path id="_Ink-4" data-name="ðŸ– Ink" d="M45.213,28.729h0a15.321,15.321,0,0,1-8.158-2.4,10.8,10.8,0,0,1-3.379-3.466,9.976,9.976,0,0,1-1.345-4.034,13.143,13.143,0,0,1,.442-4.91,4.45,4.45,0,0,1-1.3.171,6.343,6.343,0,0,1-1.894-.286,2.716,2.716,0,0,1-1.366-.845c-2.646-.226-5.32-.554-7.905-.871A118.844,118.844,0,0,0,5.919,10.912c-1.151,0-2.283.034-3.365.1a.756.756,0,0,0-.685.458,1.984,1.984,0,0,0-.039.8,1.991,1.991,0,0,1-.038.8.749.749,0,0,1-.676.457A1.168,1.168,0,0,1,.02,12.42a2.966,2.966,0,0,1,.282-1.6A2.058,2.058,0,0,1,1.318,9.725c.484-.347,1.958-.53,4.262-.53A96.681,96.681,0,0,1,16.647,10a94.16,94.16,0,0,1,11.685,2.114,4.127,4.127,0,0,1,2.3-.553,16.77,16.77,0,0,1,2.182.191c.234.031.455.06.662.084a14.634,14.634,0,0,1,1.838-3.215,18.042,18.042,0,0,1,2.819-3A14.46,14.46,0,0,1,41.644,3.4a9.754,9.754,0,0,1,3.9-.866,8.135,8.135,0,0,1,1.311.106,18.069,18.069,0,0,1,3.8.6,11.87,11.87,0,0,1,3.309,1.468,10.079,10.079,0,0,1,2.653,2.534,12.726,12.726,0,0,1,1.828,3.8,9.374,9.374,0,0,1,3.12-1.822,11.064,11.064,0,0,1,3.691-.648,8.154,8.154,0,0,1,4.169,1.046,15.616,15.616,0,0,1,3.632-5.149,14.454,14.454,0,0,1,5.452-3.176A6.6,6.6,0,0,1,82.375,0a7.159,7.159,0,0,1,3.009.7,10.2,10.2,0,0,1,2.691,1.851A13.043,13.043,0,0,1,90.229,5.2a12.849,12.849,0,0,1,1.4,3.1,2.954,2.954,0,0,1,1.279-.561A6.777,6.777,0,0,1,94.291,7.6,1.3,1.3,0,0,1,95.053,8a.872.872,0,0,1,.212.65c-.044.466-.493.937-1.395.937a4.694,4.694,0,0,1-2.029-.572,17.409,17.409,0,0,1,.324,7.228,11.976,11.976,0,0,1-2.36,5.291,11.837,11.837,0,0,1-2.133,2.089,12.8,12.8,0,0,1-2.534,1.494,14.066,14.066,0,0,1-5.68,1.2h0a13.56,13.56,0,0,1-2.647-.258,12.24,12.24,0,0,1-2.493-.776,10.739,10.739,0,0,1-2.218-1.3,9.678,9.678,0,0,1-1.824-1.816A10.011,10.011,0,0,1,68.348,17.5a15.789,15.789,0,0,1,.521-6.433,19.514,19.514,0,0,0-4.538-.575,12.634,12.634,0,0,0-5.679,1.251,13.039,13.039,0,0,1,.483,3.106,12.718,12.718,0,0,1-.26,2.995,13.049,13.049,0,0,1-.925,2.8,13.611,13.611,0,0,1-1.512,2.517,14.073,14.073,0,0,1-11.224,5.572ZM46.778,4.408h0a17.607,17.607,0,0,0-6.15,1.227,15.574,15.574,0,0,0-4.99,5.67,14.4,14.4,0,0,0-1.3,3.524,11.022,11.022,0,0,0-.226,3.577,8.335,8.335,0,0,0,1.7,4.289,10.215,10.215,0,0,0,4.426,3.147,12.685,12.685,0,0,0,2.378.7,13.048,13.048,0,0,0,2.451.232A12.85,12.85,0,0,0,50.461,25.6a11.77,11.77,0,0,0,2.359-1.456,11.2,11.2,0,0,0,1.968-2.018,11.887,11.887,0,0,0,2.386-6.093,11.716,11.716,0,0,0-.125-3.158,10.96,10.96,0,0,0-.962-2.945,10.042,10.042,0,0,0-1.479-2.207A9.523,9.523,0,0,0,52.55,5.973a9.9,9.9,0,0,0-2.617-1.151,11.751,11.751,0,0,0-3.155-.414Zm34.967-2.69a.136.136,0,0,0-.061.012,11.9,11.9,0,0,0-2.32.6c-.411.136-.8.264-1.145.351a14.441,14.441,0,0,0-5.965,5.352,13.863,13.863,0,0,0-2.363,7.559,9.29,9.29,0,0,0,.349,2.422,8.057,8.057,0,0,0,1.018,2.22,9.33,9.33,0,0,0,4.324,3.406,10.5,10.5,0,0,0,2.039.612,11.2,11.2,0,0,0,2.124.2,11.423,11.423,0,0,0,4.173-.791,10.465,10.465,0,0,0,1.881-.974,9.619,9.619,0,0,0,1.633-1.347,9.178,9.178,0,0,0,1.872-2.7,12.432,12.432,0,0,0,.991-3.315,14.954,14.954,0,0,0-.608-7.088,12.176,12.176,0,0,0-1.124-2.4,9.757,9.757,0,0,0-1.608-2,8.139,8.139,0,0,0-2.086-1.437,8.012,8.012,0,0,0-2.559-.721.582.582,0,0,1-.27.064,1.041,1.041,0,0,1-.164-.016l-.018,0A.746.746,0,0,0,81.746,1.717ZM33.3,12.278h0l-.122.054h0l-.032.014.014.005.014.006a.312.312,0,0,1,.054.035l.024.017c.009-.025.019-.05.029-.075l0,0,.021-.055Z" transform="translate(3.416 1.952)"/>
    </g>
  </g>
</svg>
